#!OML:ASF E:\EmotionMaleHayes\Project 1\Capture day 1\Session 1\Male1.ASF
:FULLY-SPECIFIED
:DEGREES
830
root 50.1552 16.6281 -0.851322 953.89 95.2043 953.395
lowerback -0.0142661 1.67803 -6.90298
upperback 1.14208 2.33406 -1.60348
thorax 0.981539 1.12636 2.22735
lowerneck -24.2317 1.12201 2.84766
upperneck 24.1551 1.04702 -1.4144
head 11.9877 0.596067 -0.815641
rclavicle -6.69656e-015 3.97569e-014
rhumerus -33.159 6.20216 -91.7006
rradius 29.3049
rwrist 2.45453
rhand -12.3074 -28.7571
rfingers 7.12502
rthumb 13.7608 -58.282
lclavicle -6.69656e-015 3.97569e-014
lhumerus -30.3349 -7.89161 89.3579
lradius 24.9213
lwrist 1.3421
lhand -16.0648 -25.549
lfingers 7.12502
lthumb 10.1377 4.18682
rfemur -0.230072 -3.99358 15.0084
rtibia 22.7813
rfoot -23.8457 4.64867
rtoes 9.40232
lfemur -3.70819 2.27294 -24.3754
ltibia 27.6313
lfoot -23.9009 10.3227
ltoes -3.22617
831
root 50.155 16.6295 -0.849969 953.687 95.2263 953.212
lowerback -0.00757036 1.67092 -6.90722
upperback 1.14436 2.32423 -1.60512
thorax 0.980926 1.12143 2.22783
lowerneck -24.1767 1.10924 2.7742
upperneck 24.1368 1.03758 -1.34108
head 11.9689 0.595206 -0.777399
rclavicle -1.86485e-014 3.06128e-014
rhumerus -33.1386 6.19325 -91.6608
rradius 29.2173
rwrist 2.43588
rhand -12.2649 -28.9179
rfingers 7.12502
rthumb 13.8018 -58.44
lclavicle -1.86485e-014 3.06128e-014
lhumerus -30.3279 -8.00264 89.4934
lradius 24.992
lwrist 1.15246
lhand -15.9893 -25.397
lfingers 7.12502
lthumb 10.2105 4.33521
rfemur -0.257989 -3.9817 14.9939
rtibia 22.8589
rfoot -23.8034 4.71074
rtoes 9.97015
lfemur -3.66398 2.1977 -24.3999
ltibia 27.5782
lfoot -23.8271 10.4703
ltoes -3.45588
832
root 50.1544 16.63 -0.848816 953.257 95.2204 952.8
lowerback -0.0148223 1.65793 -6.87584
upperback 1.1597 2.30786 -1.5943
thorax 1.00299 1.11239 2.2221
lowerneck -24.1549 1.09832 2.76836
upperneck 24.1122 1.03119 -1.36431
head 11.9551 0.58836 -0.786248
rclavicle 3.49613e-014 -2.46493e-014
rhumerus -33.1463 6.09942 -91.5756
rradius 29.2406
rwrist 2.53044
rhand -12.1783 -28.9705
rfingers 7.12502
rthumb 13.8852 -58.487
lclavicle 3.49613e-014 -2.46493e-014
lhumerus -30.2632 -8.12544 89.6385
lradius 25.0417
lwrist 1.05453
lhand -15.8709 -25.2479
lfingers 7.12502
lthumb 10.3247 4.47866
rfemur -0.254742 -4.00545 15.0235
rtibia 22.8783
rfoot -23.8176 4.68404
rtoes 9.63043
lfemur -3.66472 2.15426 -24.3885
ltibia 27.5718
lfoot -23.7541 10.7238
ltoes -3.88262
833
root 50.1535 16.6276 -0.848701 952.689 95.2098 952.261
lowerback -0.0239508 1.65443 -6.80741
upperback 1.18102 2.30461 -1.59473
thorax 1.03289 1.11001 2.18441
lowerneck -24.235 1.04612 2.75114
upperneck 24.1808 0.966238 -1.37769
head 11.9955 0.556151 -0.799711
rclavicle -1.25856e-014 2.66371e-014
rhumerus -33.1986 5.8674 -91.4479
rradius 29.3764
rwrist 2.81382
rhand -11.9061 -29.0706
rfingers 7.12502
rthumb 14.1475 -58.5689
lclavicle -1.25856e-014 2.66371e-014
lhumerus -30.2367 -8.39319 89.8075
lradius 25.1121
lwrist 1.05745
lhand -15.8957 -25.4105
lfingers 7.12502
lthumb 10.3008 4.31726
rfemur -0.195177 -4.04955 15.0587
rtibia 22.8196
rfoot -23.853 4.68615
rtoes 8.92543
lfemur -3.6627 2.18878 -24.3548
ltibia 27.6086
lfoot -23.7756 10.787
ltoes -4.08998
834
root 50.1526 16.6267 -0.848515 952.425 95.2145 952.028
lowerback -0.0740431 1.64568 -6.78178
upperback 1.24131 2.30102 -1.60252
thorax 1.12495 1.10468 2.16502
lowerneck -24.3837 0.992333 2.80604
upperneck 24.2643 0.887647 -1.45665
head 12.0553 0.515243 -0.852463
rclavicle 4.98204e-015 -3.4191e-014
rhumerus -33.1727 5.72131 -91.3539
rradius 29.4487
rwrist 2.97595
rhand -11.765 -29.1844
rfingers 7.12502
rthumb 14.2835 -58.6731
lclavicle 4.98204e-015 -3.4191e-014
lhumerus -30.2149 -8.82085 90.0186
lradius 25.245
lwrist 1.11636
lhand -16.1522 -25.7587
lfingers 7.12502
lthumb 10.0533 3.98113
rfemur -0.132629 -3.95976 15.0762
rtibia 22.7617
rfoot -23.8273 4.56648
rtoes 8.51921
lfemur -3.63143 2.15059 -24.3535
ltibia 27.643
lfoot -23.7875 10.8629
ltoes -4.42008
835
root 50.1409 16.6351 -0.842164 950.02 95.0516 949.659
lowerback 0.0222134 1.64381 -6.6142
upperback 1.29183 2.28844 -1.50484
thorax 1.12599 1.09768 2.17021
lowerneck -24.3626 1.0146 2.88849
upperneck 24.1528 0.899008 -1.50793
head 12.0088 0.519327 -0.883277
rclavicle 2.40032e-014 2.22639e-014
rhumerus -33.0862 5.68605 -91.2712
rradius 29.4276
rwrist 3.00703
rhand -11.8622 -29.0448
rfingers 7.12502
rthumb 14.1898 -58.5402
lclavicle 2.40032e-014 2.22639e-014
lhumerus -30.1251 -9.09238 90.1872
lradius 25.3356
lwrist 1.06266
lhand -16.3545 -26.2292
lfingers 7.12502
lthumb 9.85811 3.52005
rfemur -0.0762007 -3.18365 15.5504
rtibia 22.625
rfoot -23.7818 3.87103
rtoes 8.89844
lfemur -3.66458 2.04135 -24.0512
ltibia 27.7176
lfoot -23.7474 11.103
ltoes -4.88427
836
root 50.1503 16.6312 -0.850576 949.819 95.0175 949.537
lowerback -0.0832385 1.60972 -6.43973
upperback 1.36217 2.25446 -1.51575
thorax 1.26733 1.07717 2.06685
lowerneck -24.2877 1.03105 2.94134
upperneck 24.0846 0.907097 -1.52194
head 11.9685 0.525592 -0.895714
rclavicle 2.19657e-014 -2.54444e-014
rhumerus -33.1075 5.66127 -91.2011
rradius 29.4184
rwrist 2.99593
rhand -11.8274 -28.9237
rfingers 7.12502
rthumb 14.2233 -58.4167
lclavicle 2.19657e-014 -2.54444e-014
lhumerus -30.0592 -9.21182 90.3041
lradius 25.2648
lwrist 0.811268
lhand -16.4477 -26.7522
lfingers 7.12502
lthumb 9.76827 3.00125
rfemur 0.100832 -3.55031 15.4127
rtibia 22.5179
rfoot -23.7418 4.44653
rtoes 9.0258
lfemur -3.53005 2.03961 -24.0815
ltibia 27.7571
lfoot -23.8331 11.1804
ltoes -4.95393
837
root 50.1384 16.6427 -0.843058 944.748 94.7556 944.409
lowerback 0.0655477 1.66163 -6.01884
upperback 1.27254 2.29761 -1.37609
thorax 1.09661 1.10693 1.97008
lowerneck -24.312 0.977963 2.9719
upperneck 24.1868 0.840373 -1.58215
head 12.0115 0.491927 -0.935338
rclavicle -1.73937e-014 2.38542e-015
rhumerus -33.2136 5.5738 -91.152
rradius 29.4549
rwrist 2.94003
rhand -11.8585 -28.9236
rfingers 7.12502
rthumb 14.1933 -58.4187
lclavicle -1.73937e-014 2.38542e-015
lhumerus -30.0783 -9.50247 90.472
lradius 25.1463
lwrist 0.466513
lhand -16.6991 -27.5254
lfingers 7.12502
lthumb 9.52564 2.23932
rfemur -0.0288303 -2.74124 16.1571
rtibia 22.5271
rfoot -23.933 3.74347
rtoes 7.98573
lfemur -3.60296 1.95163 -23.5298
ltibia 27.7143
lfoot -23.9022 11.2593
ltoes -4.03898
838
root 50.134 16.6464 -0.841385 943.844 94.8077 943.567
lowerback 0.18061 1.68505 -6.00455
upperback 1.2536 2.31875 -1.37407
thorax 1.01123 1.12025 1.96
lowerneck -24.2296 0.913508 2.91794
upperneck 24.1539 0.762928 -1.54939
head 11.9803 0.456989 -0.927099
rclavicle 2.60905e-016 -7.15625e-015
rhumerus -33.2752 5.59428 -91.1355
rradius 29.4562
rwrist 2.70533
rhand -12.0532 -28.9518
rfingers 7.12502
rthumb 14.0058 -58.4599
lclavicle 2.60905e-016 -7.15625e-015
lhumerus -30.1756 -9.82586 90.6665
lradius 25.1055
lwrist -0.0776092
lhand -17.0082 -28.4828
lfingers 7.12502
lthumb 9.22745 1.29525
rfemur -0.0321156 -2.5873 16.1852
rtibia 22.597
rfoot -23.9305 3.65402
rtoes 7.79151
lfemur -3.51326 1.98644 -23.5115
ltibia 27.6563
lfoot -23.9476 11.2712
ltoes -3.77804
839
root 50.1241 16.6436 -0.833687 948.634 95.4159 948.465
lowerback 0.341727 1.69179 -6.87103
upperback 1.25843 2.32658 -1.55582
thorax 0.901703 1.12285 2.24889
lowerneck -24.1276 0.857134 2.88329
upperneck 24.0819 0.690062 -1.52071
head 11.9305 0.424793 -0.922606
rclavicle -9.10682e-015 1.78906e-014
rhumerus -33.2824 5.73003 -91.141
rradius 29.4794
rwrist 2.46081
rhand -11.9733 -29.061
rfingers 7.12502
rthumb 14.0827 -58.5639
lclavicle -9.10682e-015 1.78906e-014
lhumerus -30.2629 -10.023 90.773
lradius 25.0842
lwrist -0.836972
lhand -17.288 -29.4294
lfingers 7.12502
lthumb 8.95742 0.360438
rfemur 0.0200085 -2.26428 15.4244
rtibia 22.5974
rfoot -23.8281 3.56004
rtoes 8.56917
lfemur -3.44651 2.06265 -24.2968
ltibia 27.632
lfoot -23.9858 11.3578
ltoes -3.15176
